# xmcd
#
# Track frame offsets: 
#        150
#        20104
#        33939
#        47203
#        58250
#        69832
#        83804
#        97611
#        113692
#        126254
#        144659
#        163894
#        177262
#        190555
#        201971
#        212922
#        227508
#        241224
#        257993
#        270432
#
# Disc length: 3859 seconds
#
# Revision: 0
# Processed by: cddbd v1.5.2PL0 Copyright (c) Steve Scherf et al.
# Submitted via: ExactAudioCopyFreeDBPlugin 1.0
#
DISCID=180f1114
DTITLE=Dionne Warwick - Soulful
DYEAR=1969
DGENRE=Soul
TTITLE0=You've Lost That Lovin' Feelin'
TTITLE1=I'm Your Puppet
TTITLE2=People Got To Be Free
TTITLE3=You're All I Need To Get By
TTITLE4=We Can Work It Out
TTITLE5=A Hard Day's Night
TTITLE6=Do Right Woman, Do Right Man
TTITLE7=I've Been Loving You Too Long
TTITLE8=People Get Ready
TTITLE9=Hey Jude
TTITLE10=You've Lost That Lovin' Feelin' [mono]
TTITLE11=I'm Your Puppet [mono]
TTITLE12=People Got To Be Free [mono]
TTITLE13=You're All I Need To Get By [mono]
TTITLE14=We Can Work It Out [mono]
TTITLE15=A Hard Day's Night [mono]
TTITLE16=Do Right Woman, Do Right Man [mono]
TTITLE17=I've Been Loving You Too Long [mono]
TTITLE18=People Get Ready [mono]
TTITLE19=Hey Jude [mono]
EXTD=
EXTT0=
EXTT1=
EXTT2=
EXTT3=
EXTT4=
EXTT5=
EXTT6=
EXTT7=
EXTT8=
EXTT9=
EXTT10=
EXTT11=
EXTT12=
EXTT13=
EXTT14=
EXTT15=
EXTT16=
EXTT17=
EXTT18=
EXTT19=
PLAYORDER=
